<svg xmlns="http://www.w3.org/2000/svg" viewBox="0 0 55.654 55.654" width="55.654" height="55.654">
  <g transform="translate(3.000 6.114)">
    <path d="M49.461,20.954,37.8.759A1.585,1.585,0,0,0,36.486,0H13.168a1.585,1.585,0,0,0-1.315.759L.193,20.954a1.586,1.586,0,0,0,0,1.518l11.66,20.195a1.585,1.585,0,0,0,1.315.759H36.486a1.585,1.585,0,0,0,1.315-.759L49.46,22.473a1.584,1.584,0,0,0,0-1.519M13.78,40.847V22.657h10.5l5.251,9.095Zm16.7-7.46,4.706,8.151H16.359ZM13.78,2.579l15.753,9.095-5.251,9.095H13.78Zm2.579-.691H35.183l-4.706,8.151Zm9.558,19.825,5.251-9.095,15.753,9.095L31.168,30.808Zm20.312-2.579L32.112,10.983l4.706-8.151ZM11.892,4.467v16.3H2.48ZM2.48,22.657h9.412v16.3ZM36.818,40.594l-4.706-8.151,14.117-8.151Z" fill="#0ac8ff"/>
  </g>
</svg>
